<svg xmlns="http://www.w3.org/2000/svg" fill="none" viewBox="0 0 260 261"><defs/><g clip-path="url(#clip0)"><path fill="#000" d="M124.7 214.2c-1.4 0-2.6-.9-3.5-2.7l-61-121.7h-1.4l-6.4 96.9v2.2c0 3.4.6 6 2 7.8a12 12 0 006.6 3.8c3 .7 7 1 12.2 1 .5 0 1 .6 1.3 1.7.3 1 .4 2.3.4 3.8s-.1 2.9-.4 4c-.4 1.2-.8 1.7-1.3 1.7a463.5 463.5 0 00-52.3 0c-.6 0-1-.5-1.4-1.6-.3-1-.5-2.3-.5-3.9 0-1.5.2-2.9.5-4 .4-1.1.8-1.7 1.4-1.7 12 0 18.2-5.1 18.6-15.3l7.4-110.7.2-3.2c0-4-.7-7.2-2.1-9.4a10.6 10.6 0 00-6.6-4.8 43 43 0 00-12.8-1.5c-.4 0-.9-.5-1.2-1.7a20.6 20.6 0 010-8c.3-1.2.8-1.8 1.2-1.8 5.8.5 13.1.8 22.2.8 6 0 10.6.3 13.7.8 3.2.6 5.7 1.6 7.5 3 1.8 1.5 3.5 3.8 5 7l58 115.5h2.5L191.2 56c1.4-3 3-5.2 4.4-6.5 1.5-1.4 3.6-2.3 6-2.8 2.7-.5 6.6-.7 11.7-.7 11 0 18.8-.3 23.6-.8.6 0 1 .6 1.4 1.7a16.2 16.2 0 010 8c-.4 1.3-.8 1.8-1.4 1.8-7 0-11.9 1.4-14.9 4.2-3 2.8-4.5 7.3-4.4 13.7l1.3 112c.2 10 6.8 15 19.7 15 .6 0 1 .5 1.4 1.6.3 1 .5 2.3.5 3.9 0 1.5-.2 2.9-.5 4-.3 1.2-.8 1.7-1.4 1.7a761 761 0 00-67 0c-.6 0-1-.5-1.3-1.6-.4-1-.5-2.3-.5-3.9 0-1.5.1-2.9.4-4 .4-1.1.8-1.7 1.4-1.7 12.6 0 18.9-5 18.7-15l-.8-96.7H188l-59.3 121.7c-.9 1.8-2.2 2.7-4 2.7z"/></g><defs><clipPath id="clip0"><path fill="#fff" d="M0 0h260v260H0z" transform="translate(0 .5)"/></clipPath></defs></svg>