<svg xmlns="http://www.w3.org/2000/svg" fill="none" viewBox="0 0 186 91"><defs/><path fill="#000" d="M83.1 28.9h29V0H79.8v5.6h26.8v5.6H83a8.9 8.9 0 000 17.7zm0-12.2h23.5v6.6H83a3.3 3.3 0 010-6.6zM16.9 67.7h26.7v5.6H20.2a8.9 8.9 0 000 17.7h29V62H16.9v5.6zm3.3 17.7a3.3 3.3 0 010-6.6h23.4v6.6H20.2zM145.5 79.8a8.9 8.9 0 000-17.7h-29V91h37.8v-5.6H122v-5.6h23.4zm0-12.1a3.3 3.3 0 010 6.5h-23.4v-6.5h23.4zM123.3 11.8L137.2 6v22.8h5.6V0h-5.6l-13.9 5.8V0h-5.6V29h5.6V11.8zM180.4 0l-14.7 6V0h-5.5v91h5.5V12l14.7-6v84.7h5.5V0h-5.5z"/><path fill="#000" d="M16.9 20v6L65.2 6V29h5.6V0h-5.6L36 12.2 6.6 0H1v91h5.6V6l22 9.2L16.9 20zM68.6 68v-6L60 65.4V62h-5.5V91H60V71.5l8.6-3.5z"/><path fill="#000" d="M148.7 0v34.5H39.9v5.6h108.8v16.4h5.6V0h-5.6z"/><path fill="#FF6E00" d="M94.1 68.5a24.4 24.4 0 100-48.7 24.4 24.4 0 000 48.7z"/><path fill="#000" d="M105.1 62.1l-13.8 5.7v-5.7h-5.6V91h5.6V73.9L105 68V91h5.6V62h-5.6zM77.1 69.2a3.9 3.9 0 100-7.8 3.9 3.9 0 000 7.8zM65.6 75.8v6l8.6-3.5V91h5.6V72.2h-5.6l-8.6 3.6zM24.2 50.9a7.2 7.2 0 01-2.5-14L54.9 23v-6.2L19.6 31.6a13 13 0 004.6 25h130v-5.7h-130z"/></svg>