<svg xmlns="http://www.w3.org/2000/svg" fill="none" viewBox="0 0 186 10"><defs/><path fill="#000" d="M4.2 5.8L3 3.8v6h-2V.7h2l2.7 3.8L8.3.7h2v9.1h-2V6.2 3.9l-1.4 2-1.3 1.8-1.4-1.9zM23 9.5c-.3.3-1 .5-1.5.5-1.6 0-3-1.3-3-3.2 0-2 1.5-3.4 3.4-3.4.5 0 1 .2 1.6.4l1.5-.2v6.2h-2v-.3zm0-4.2c-.2-.1-.6-.3-1-.3-1 0-1.5.8-1.5 1.7 0 1 .5 1.7 1.5 1.7.4 0 .7-.1 1-.3V5.3zM33.5 3.6h2v.6a3 3 0 011.9-.8c.6 0 1.2.3 1.6.7.4.4.6 1 .6 1.8v4h-2V6.1c0-.4 0-.7-.2-.8-.1-.2-.4-.3-.6-.3-.5 0-1 .2-1.3.5v4.2h-2V3.6zM52.3 9.5c-.4.3-1 .5-1.6.5-1.6 0-3-1.2-3-3.2a3.3 3.3 0 014.5-3.1V0h2v9.7h-2v-.3zm0-4.2l-1-.2c-1 0-1.6.7-1.6 1.7 0 .9.5 1.6 1.5 1.6a2 2 0 001-.3V5.3zM67 9.5c-.4.3-1 .5-1.6.5-1.6 0-3-1.3-3-3.2 0-2 1.5-3.4 3.4-3.4.5 0 1 .2 1.6.4l1.5-.2v6.2h-2v-.3zm0-4.2L66 5c-1.1 0-1.6.8-1.6 1.7 0 1 .5 1.7 1.5 1.7.3 0 .7-.1 1-.3V5.3zM77.4 3.6h2v.8a2.1 2.1 0 012.2-.8v1.8H81a2 2 0 00-1.6.7v3.7h-2V3.6zM90.4.5c.6 0 1.2.5 1.2 1.1 0 .6-.6 1.1-1.2 1.1s-1-.5-1-1c0-.7.4-1.2 1-1.2zm-1 4h2v5.3h-2V4.5zM100 3.6h1.9v.6a3 3 0 012-.8c.6 0 1.2.3 1.6.7.3.4.5 1 .5 1.8v4h-2V6.1l-.1-.8c-.2-.2-.4-.3-.7-.3-.5 0-1 .2-1.3.5v4.2h-2V3.6zM116.1 7.2c.2.9 1 1.3 1.8 1.3a4 4 0 002.2-.7v1.6c-.7.4-1.6.6-2.4.6-2 0-3.6-1.3-3.6-3.3 0-2 1.6-3.2 3.3-3.2 1.5 0 3 1 3 3v.7H116zm2.5-1.2c0-.7-.6-1-1.2-1s-1.1.3-1.3 1h2.5zM128.6 3.6h2v.6a3 3 0 011.9-.8c.6 0 1.2.3 1.6.7.4.4.6 1 .6 1.8v4h-2V6.1c0-.4 0-.7-.2-.8-.1-.2-.4-.3-.6-.3-.5 0-1 .2-1.3.5v4.2h-2V3.6zM143.5 5.2h-.8V3.6h.8v-1c0-.8.2-1.6.7-2 .4-.4 1.1-.6 1.8-.6.3 0 .7 0 1 .2v1.5h-.8c-.6 0-.7.3-.7.8v1h1.4v1.7h-1.4v4.6h-2V5.2zM155.8.5c.7 0 1.2.5 1.2 1.1 0 .6-.5 1.1-1.2 1.1-.6 0-1-.5-1-1 0-.7.4-1.2 1-1.2zm-1 4h2v5.3h-2V4.5zM165.4.1h2v9.7h-2V.1zM184 6.2c0-.4-.1-.7-.3-.8a.9.9 0 00-.6-.3 2 2 0 00-1.3.5V10H180V6.1c0-.4 0-.6-.2-.8a.9.9 0 00-.7-.3 2 2 0 00-1.2.5v4.2h-2V3.6h2V4c.5-.4 1.1-.7 1.9-.7.6 0 1.4.3 1.8 1 .7-.7 1.4-1 2.2-1 .7 0 1.2.3 1.6.7.4.4.5 1 .5 1.8v4H184V6.1z"/></svg>